<svg xmlns="http://www.w3.org/2000/svg" xmlns:xlink="http://www.w3.org/1999/xlink" viewBox="0 0 1916.61 1076.06"><defs><style>.cls-1,.cls-11,.cls-12,.cls-14,.cls-17,.cls-2,.cls-20,.cls-5{fill:#fff;}.cls-2{font-size:42.44px;}.cls-11,.cls-12,.cls-14,.cls-17,.cls-2,.cls-20,.cls-5{font-family:MyriadPro-Regular, Myriad Pro;}.cls-3{letter-spacing:0em;}.cls-4{letter-spacing:-0.03em;}.cls-5{font-size:43.08px;}.cls-6{letter-spacing:0.01em;}.cls-7{letter-spacing:0em;}.cls-8{letter-spacing:-0.03em;}.cls-9{fill:#f2f2f2;}.cls-10,.cls-13{fill:none;stroke:#fff;stroke-miterlimit:10;}.cls-10{stroke-width:3px;}.cls-11{font-size:50.51px;}.cls-12{font-size:44.09px;}.cls-13{stroke-width:2px;}.cls-14{font-size:29.05px;}.cls-15{letter-spacing:0em;}.cls-16{letter-spacing:-0.01em;}.cls-17{font-size:33.5px;}.cls-18{letter-spacing:-0.08em;}.cls-19{letter-spacing:0.01em;}.cls-20{font-size:24px;}.cls-21{letter-spacing:-0.02em;}.cls-22{letter-spacing:0.01em;}.cls-23{letter-spacing:-0.07em;}.cls-24{letter-spacing:-0.01em;}.cls-25{letter-spacing:0em;}.cls-26{letter-spacing:-0.01em;}.cls-27{letter-spacing:-0.02em;}.cls-28{letter-spacing:-0.04em;}.cls-29{letter-spacing:0em;}.cls-30{letter-spacing:-0.03em;}.cls-31{letter-spacing:0em;}.cls-32{letter-spacing:-0.01em;}.cls-33{letter-spacing:0em;}.cls-34{letter-spacing:-0.08em;}.cls-35{letter-spacing:-0.02em;}.cls-36{letter-spacing:-0.04em;}.cls-37{letter-spacing:0em;}</style></defs><g id="Camada_2" data-name="Camada 2"><g id="Camada_1-2" data-name="Camada 1"><path class="cls-1" d="M295.42,2.06A53.65,53.65,0,0,1,349,55.64V171.75a53.65,53.65,0,0,1-53.58,53.58H55.58A53.65,53.65,0,0,1,2,171.75V55.64A53.65,53.65,0,0,1,55.58,2.06H295.42m0-2H55.58A55.58,55.58,0,0,0,0,55.64V171.75a55.57,55.57,0,0,0,55.58,55.58H295.42A55.57,55.57,0,0,0,351,171.75V55.64A55.58,55.58,0,0,0,295.42.06Z"/><path class="cls-1" d="M782.64,116.06A19.38,19.38,0,0,1,802,135.42V205a19.38,19.38,0,0,1-19.36,19.36H617.36A19.38,19.38,0,0,1,598,205V135.42a19.38,19.38,0,0,1,19.36-19.36H782.64m0-2H617.36A21.36,21.36,0,0,0,596,135.42V205a21.36,21.36,0,0,0,21.36,21.36H782.64A21.36,21.36,0,0,0,804,205V135.42a21.36,21.36,0,0,0-21.36-21.36Z"/><path class="cls-1" d="M1198.44,165.06A12.58,12.58,0,0,1,1211,177.62v65.15a12.57,12.57,0,0,1-12.56,12.56H1019.56A12.57,12.57,0,0,1,1007,242.77V177.62a12.58,12.58,0,0,1,12.56-12.56h178.88m0-2H1019.56A14.56,14.56,0,0,0,1005,177.62v65.15a14.56,14.56,0,0,0,14.56,14.56h178.88A14.56,14.56,0,0,0,1213,242.77V177.62a14.56,14.56,0,0,0-14.56-14.56Z"/><path class="cls-1" d="M674.64,2.06A19.38,19.38,0,0,1,694,21.42V56.7a19.38,19.38,0,0,1-19.36,19.36H618.36A19.38,19.38,0,0,1,599,56.7V21.42A19.38,19.38,0,0,1,618.36,2.06h56.28m0-2H618.36A21.36,21.36,0,0,0,597,21.42V56.7a21.36,21.36,0,0,0,21.36,21.36h56.28A21.36,21.36,0,0,0,696,56.7V21.42A21.36,21.36,0,0,0,674.64.06Z"/><path class="cls-1" d="M789.64,2.06A19.38,19.38,0,0,1,809,21.42V56.7a19.38,19.38,0,0,1-19.36,19.36H733.36A19.38,19.38,0,0,1,714,56.7V21.42A19.38,19.38,0,0,1,733.36,2.06h56.28m0-2H733.36A21.36,21.36,0,0,0,712,21.42V56.7a21.36,21.36,0,0,0,21.36,21.36h56.28A21.36,21.36,0,0,0,811,56.7V21.42A21.36,21.36,0,0,0,789.64.06Z"/><path class="cls-1" d="M899.64,2.06A19.38,19.38,0,0,1,919,21.42V56.7a19.38,19.38,0,0,1-19.36,19.36H843.36A19.38,19.38,0,0,1,824,56.7V21.42A19.38,19.38,0,0,1,843.36,2.06h56.28m0-2H843.36A21.36,21.36,0,0,0,822,21.42V56.7a21.36,21.36,0,0,0,21.36,21.36h56.28A21.36,21.36,0,0,0,921,56.7V21.42A21.36,21.36,0,0,0,899.64.06Z"/><path class="cls-1" d="M1009.64,2.06A19.38,19.38,0,0,1,1029,21.42V56.7a19.38,19.38,0,0,1-19.36,19.36H953.36A19.38,19.38,0,0,1,934,56.7V21.42A19.38,19.38,0,0,1,953.36,2.06h56.28m0-2H953.36A21.36,21.36,0,0,0,932,21.42V56.7a21.36,21.36,0,0,0,21.36,21.36h56.28A21.36,21.36,0,0,0,1031,56.7V21.42A21.36,21.36,0,0,0,1009.64.06Z"/><path class="cls-1" d="M180.87,323.18a35.24,35.24,0,0,1,35.2,35.2v433.5a35.24,35.24,0,0,1-35.2,35.2H38.12a35.24,35.24,0,0,1-35.2-35.2V358.38a35.24,35.24,0,0,1,35.2-35.2H180.87m0-2H38.12a37.21,37.21,0,0,0-37.2,37.2v433.5a37.2,37.2,0,0,0,37.2,37.2H180.87a37.2,37.2,0,0,0,37.2-37.2V358.38a37.21,37.21,0,0,0-37.2-37.2Z"/><path class="cls-1" d="M1879.41,2a35.25,35.25,0,0,1,35.2,35.2V1038.86a35.25,35.25,0,0,1-35.2,35.2H1693.66a35.24,35.24,0,0,1-35.2-35.2V37.2A35.24,35.24,0,0,1,1693.66,2h185.75m0-2H1693.66a37.19,37.19,0,0,0-37.2,37.2V1038.86a37.19,37.19,0,0,0,37.2,37.2h185.75a37.2,37.2,0,0,0,37.2-37.2V37.2A37.2,37.2,0,0,0,1879.41,0Z"/><path class="cls-1" d="M1565.78,948.06A39.27,39.27,0,0,1,1605,987.28v44.4a39.26,39.26,0,0,1-39.22,39.22H42.22A39.27,39.27,0,0,1,3,1031.68v-44.4a39.27,39.27,0,0,1,39.22-39.22H1565.78m0-2H42.22A41.23,41.23,0,0,0,1,987.28v44.4a41.22,41.22,0,0,0,41.22,41.22H1565.78a41.21,41.21,0,0,0,41.22-41.22v-44.4a41.22,41.22,0,0,0-41.22-41.22Z"/><path class="cls-1" d="M335,323.18a15.53,15.53,0,0,1,15.52,15.52V380A15.53,15.53,0,0,1,335,395.55H267.75A15.53,15.53,0,0,1,252.23,380V338.7a15.53,15.53,0,0,1,15.52-15.52H335m0-2H267.75a17.52,17.52,0,0,0-17.52,17.52V380a17.51,17.51,0,0,0,17.52,17.52H335A17.51,17.51,0,0,0,352.51,380V338.7A17.52,17.52,0,0,0,335,321.18Z"/><path class="cls-1" d="M335,408.75a15.53,15.53,0,0,1,15.52,15.52V465.6A15.53,15.53,0,0,1,335,481.12H267.75a15.53,15.53,0,0,1-15.52-15.52V424.27a15.53,15.53,0,0,1,15.52-15.52H335m0-2H267.75a17.52,17.52,0,0,0-17.52,17.52V465.6a17.51,17.51,0,0,0,17.52,17.52H335a17.51,17.51,0,0,0,17.52-17.52V424.27A17.52,17.52,0,0,0,335,406.75Z"/><image width="144" height="80" transform="translate(62.57 78.27) scale(1.53)" xlink:href="../../../../../../xampp/htdocs/gogar/logo/Logo-Gogar%20(1).png"/><text class="cls-2" transform="translate(33.65 52.85)">TREIN<tspan class="cls-3" x="102.87" y="0">A</tspan><tspan x="128.67" y="0">MEN</tspan><tspan class="cls-4" x="211.6" y="0">T</tspan><tspan x="231.54" y="0">O</tspan></text><text class="cls-5" transform="translate(24.29 370.94)">SUPO<tspan class="cls-6" x="101.71" y="0">R</tspan><tspan class="cls-7" x="125.27" y="0">TE</tspan></text><text class="cls-5" transform="translate(699.29 1017.94)">CLIENTES FINAIS - US<tspan class="cls-8" x="376.25" y="0">U</tspan><tspan x="402.66" y="0">ÁRIOS</tspan></text><line class="cls-9" x1="109.03" y1="237.45" x2="109.03" y2="310.6"/><line class="cls-10" x1="109.03" y1="255.56" x2="109.03" y2="292.5"/><path class="cls-1" d="M109,237.45c-3.16,8.52-8.55,19.09-14.26,25.64L109,257.93l14.27,5.16C117.58,256.54,112.19,246,109,237.45Z"/><path class="cls-1" d="M109,310.6c-3.16-8.52-8.55-19.09-14.26-25.64L109,290.12,123.3,285C117.58,291.51,112.19,302.08,109,310.6Z"/><line class="cls-9" x1="109.03" y1="836.45" x2="109.03" y2="909.6"/><line class="cls-10" x1="109.03" y1="854.56" x2="109.03" y2="891.5"/><path class="cls-1" d="M109,836.45c-3.16,8.52-8.55,19.09-14.26,25.64L109,856.93l14.27,5.16C117.58,855.54,112.19,845,109,836.45Z"/><path class="cls-1" d="M109,909.6c-3.16-8.52-8.55-19.09-14.26-25.64L109,889.12,123.3,884C117.58,890.51,112.19,901.08,109,909.6Z"/><text class="cls-11" transform="translate(287.93 375.34)">P</text><text class="cls-12" transform="translate(259.75 458.3)">INST</text><path class="cls-1" d="M335,754.71a15.54,15.54,0,0,1,15.52,15.52v41.33A15.53,15.53,0,0,1,335,827.08H267.75a15.53,15.53,0,0,1-15.52-15.52V770.23a15.54,15.54,0,0,1,15.52-15.52H335m0-2H267.75a17.52,17.52,0,0,0-17.52,17.52v41.33a17.51,17.51,0,0,0,17.52,17.52H335a17.51,17.51,0,0,0,17.52-17.52V770.23A17.52,17.52,0,0,0,335,752.71Z"/><text class="cls-12" transform="translate(289.51 805.18)">R</text><path class="cls-1" d="M462,754.71a15.54,15.54,0,0,1,15.52,15.52v41.33A15.53,15.53,0,0,1,462,827.08H394.75a15.53,15.53,0,0,1-15.52-15.52V770.23a15.54,15.54,0,0,1,15.52-15.52H462m0-2H394.75a17.52,17.52,0,0,0-17.52,17.52v41.33a17.51,17.51,0,0,0,17.52,17.52H462a17.51,17.51,0,0,0,17.52-17.52V770.23A17.52,17.52,0,0,0,462,752.71Z"/><text class="cls-12" transform="translate(416.51 805.18)">R</text><path class="cls-1" d="M598,754.71a15.54,15.54,0,0,1,15.52,15.52v41.33A15.53,15.53,0,0,1,598,827.08H530.75a15.53,15.53,0,0,1-15.52-15.52V770.23a15.54,15.54,0,0,1,15.52-15.52H598m0-2H530.75a17.52,17.52,0,0,0-17.52,17.52v41.33a17.51,17.51,0,0,0,17.52,17.52H598a17.51,17.51,0,0,0,17.52-17.52V770.23A17.52,17.52,0,0,0,598,752.71Z"/><text class="cls-12" transform="translate(552.51 805.18)">R</text><line class="cls-13" x1="218" y1="358.06" x2="250" y2="358.06"/><path class="cls-1" d="M335,493.4a15.53,15.53,0,0,1,15.52,15.52v41.33A15.53,15.53,0,0,1,335,565.77H267.75a15.53,15.53,0,0,1-15.52-15.52V508.92a15.53,15.53,0,0,1,15.52-15.52H335m0-2H267.75a17.52,17.52,0,0,0-17.52,17.52v41.33a17.51,17.51,0,0,0,17.52,17.52H335a17.51,17.51,0,0,0,17.52-17.52V508.92A17.52,17.52,0,0,0,335,491.4Z"/><path class="cls-1" d="M335,579a15.53,15.53,0,0,1,15.52,15.52v41.33A15.53,15.53,0,0,1,335,651.34H267.75a15.53,15.53,0,0,1-15.52-15.52V594.49A15.53,15.53,0,0,1,267.75,579H335m0-2H267.75a17.52,17.52,0,0,0-17.52,17.52v41.33a17.51,17.51,0,0,0,17.52,17.52H335a17.51,17.51,0,0,0,17.52-17.52V594.49A17.52,17.52,0,0,0,335,577Z"/><path class="cls-1" d="M335,666.38a15.54,15.54,0,0,1,15.52,15.52v41.33A15.53,15.53,0,0,1,335,738.75H267.75a15.53,15.53,0,0,1-15.52-15.52V681.9a15.54,15.54,0,0,1,15.52-15.52H335m0-2H267.75a17.52,17.52,0,0,0-17.52,17.52v41.33a17.51,17.51,0,0,0,17.52,17.52H335a17.51,17.51,0,0,0,17.52-17.52V681.9A17.52,17.52,0,0,0,335,664.38Z"/><text class="cls-12" transform="translate(266.65 630.36)">IMP</text><text class="cls-12" transform="translate(288.58 542.95)">C</text><text class="cls-12" transform="translate(290.5 716.85)">S</text><line class="cls-10" x1="222" y1="530.56" x2="228.89" y2="530.56"/><path class="cls-1" d="M247,530.56c-8.52,3.16-19.09,8.56-25.64,14.27l5.16-14.27-5.16-14.26C227.91,522,238.48,527.41,247,530.56Z"/><path class="cls-1" d="M598,492.4a15.53,15.53,0,0,1,15.52,15.52v41.33A15.53,15.53,0,0,1,598,564.77H530.75a15.53,15.53,0,0,1-15.52-15.52V507.92a15.53,15.53,0,0,1,15.52-15.52H598m0-2H530.75a17.52,17.52,0,0,0-17.52,17.52v41.33a17.51,17.51,0,0,0,17.52,17.52H598a17.51,17.51,0,0,0,17.52-17.52V507.92A17.52,17.52,0,0,0,598,490.4Z"/><path class="cls-1" d="M598,578a15.53,15.53,0,0,1,15.52,15.52v41.33A15.53,15.53,0,0,1,598,650.34H530.75a15.53,15.53,0,0,1-15.52-15.52V593.49A15.53,15.53,0,0,1,530.75,578H598m0-2H530.75a17.52,17.52,0,0,0-17.52,17.52v41.33a17.51,17.51,0,0,0,17.52,17.52H598a17.51,17.51,0,0,0,17.52-17.52V593.49A17.52,17.52,0,0,0,598,576Z"/><path class="cls-1" d="M598,665.38a15.54,15.54,0,0,1,15.52,15.52v41.33A15.53,15.53,0,0,1,598,737.75H530.75a15.53,15.53,0,0,1-15.52-15.52V680.9a15.54,15.54,0,0,1,15.52-15.52H598m0-2H530.75a17.52,17.52,0,0,0-17.52,17.52v41.33a17.51,17.51,0,0,0,17.52,17.52H598a17.51,17.51,0,0,0,17.52-17.52V680.9A17.52,17.52,0,0,0,598,663.38Z"/><text class="cls-12" transform="translate(529.65 629.36)">IMP</text><text class="cls-12" transform="translate(551.58 541.95)">C</text><text class="cls-12" transform="translate(553.5 715.85)">S</text><line class="cls-10" x1="485" y1="529.56" x2="491.89" y2="529.56"/><path class="cls-1" d="M510,529.56c-8.52,3.16-19.09,8.56-25.64,14.27l5.16-14.27-5.16-14.26C490.91,521,501.48,526.41,510,529.56Z"/><line class="cls-10" x1="910" y1="528.56" x2="916.89" y2="528.56"/><path class="cls-1" d="M935,528.56c-8.52,3.16-19.09,8.56-25.64,14.27l5.16-14.27-5.16-14.26C915.91,520,926.48,525.41,935,528.56Z"/><line class="cls-10" x1="301" y1="837.16" x2="301" y2="910.49"/><path class="cls-1" d="M301,928.59c-3.16-8.52-8.55-19.09-14.27-25.64L301,908.11,315.26,903C309.55,909.5,304.16,920.07,301,928.59Z"/><path class="cls-1" d="M865,753.71a15.54,15.54,0,0,1,15.52,15.52v41.33A15.53,15.53,0,0,1,865,826.08H797.75a15.53,15.53,0,0,1-15.52-15.52V769.23a15.54,15.54,0,0,1,15.52-15.52H865m0-2H797.75a17.52,17.52,0,0,0-17.52,17.52v41.33a17.51,17.51,0,0,0,17.52,17.52H865a17.51,17.51,0,0,0,17.52-17.52V769.23A17.52,17.52,0,0,0,865,751.71Z"/><text class="cls-12" transform="translate(819.51 804.18)">R</text><path class="cls-1" d="M865,665.38a15.54,15.54,0,0,1,15.52,15.52v41.33A15.53,15.53,0,0,1,865,737.75H797.75a15.53,15.53,0,0,1-15.52-15.52V680.9a15.54,15.54,0,0,1,15.52-15.52H865m0-2H797.75a17.52,17.52,0,0,0-17.52,17.52v41.33a17.51,17.51,0,0,0,17.52,17.52H865a17.51,17.51,0,0,0,17.52-17.52V680.9A17.52,17.52,0,0,0,865,663.38Z"/><text class="cls-12" transform="translate(820.5 715.85)">S</text><line class="cls-10" x1="831" y1="835.92" x2="831" y2="909.25"/><path class="cls-1" d="M831,927.36c-3.16-8.52-8.55-19.09-14.27-25.65L831,906.88l14.26-5.17C839.55,908.27,834.16,918.84,831,927.36Z"/><path class="cls-1" d="M734,322.18a15.53,15.53,0,0,1,15.52,15.52V379A15.53,15.53,0,0,1,734,394.55H666.75A15.53,15.53,0,0,1,651.23,379V337.7a15.53,15.53,0,0,1,15.52-15.52H734m0-2H666.75a17.52,17.52,0,0,0-17.52,17.52V379a17.51,17.51,0,0,0,17.52,17.52H734A17.51,17.51,0,0,0,751.51,379V337.7A17.52,17.52,0,0,0,734,320.18Z"/><path class="cls-1" d="M734,407.75a15.53,15.53,0,0,1,15.52,15.52V464.6A15.53,15.53,0,0,1,734,480.12H666.75a15.53,15.53,0,0,1-15.52-15.52V423.27a15.53,15.53,0,0,1,15.52-15.52H734m0-2H666.75a17.52,17.52,0,0,0-17.52,17.52V464.6a17.51,17.51,0,0,0,17.52,17.52H734a17.51,17.51,0,0,0,17.52-17.52V423.27A17.52,17.52,0,0,0,734,405.75Z"/><text class="cls-11" transform="translate(686.93 374.34)">P</text><text class="cls-12" transform="translate(658.75 457.3)">INST</text><path class="cls-1" d="M734,753.71a15.54,15.54,0,0,1,15.52,15.52v41.33A15.53,15.53,0,0,1,734,826.08H666.75a15.53,15.53,0,0,1-15.52-15.52V769.23a15.54,15.54,0,0,1,15.52-15.52H734m0-2H666.75a17.52,17.52,0,0,0-17.52,17.52v41.33a17.51,17.51,0,0,0,17.52,17.52H734a17.51,17.51,0,0,0,17.52-17.52V769.23A17.52,17.52,0,0,0,734,751.71Z"/><text class="cls-12" transform="translate(688.51 804.18)">R</text><path class="cls-1" d="M734,492.4a15.53,15.53,0,0,1,15.52,15.52v41.33A15.53,15.53,0,0,1,734,564.77H666.75a15.53,15.53,0,0,1-15.52-15.52V507.92a15.53,15.53,0,0,1,15.52-15.52H734m0-2H666.75a17.52,17.52,0,0,0-17.52,17.52v41.33a17.51,17.51,0,0,0,17.52,17.52H734a17.51,17.51,0,0,0,17.52-17.52V507.92A17.52,17.52,0,0,0,734,490.4Z"/><path class="cls-1" d="M734,578a15.53,15.53,0,0,1,15.52,15.52v41.33A15.53,15.53,0,0,1,734,650.34H666.75a15.53,15.53,0,0,1-15.52-15.52V593.49A15.53,15.53,0,0,1,666.75,578H734m0-2H666.75a17.52,17.52,0,0,0-17.52,17.52v41.33a17.51,17.51,0,0,0,17.52,17.52H734a17.51,17.51,0,0,0,17.52-17.52V593.49A17.52,17.52,0,0,0,734,576Z"/><path class="cls-1" d="M734,665.38a15.54,15.54,0,0,1,15.52,15.52v41.33A15.53,15.53,0,0,1,734,737.75H666.75a15.53,15.53,0,0,1-15.52-15.52V680.9a15.54,15.54,0,0,1,15.52-15.52H734m0-2H666.75a17.52,17.52,0,0,0-17.52,17.52v41.33a17.51,17.51,0,0,0,17.52,17.52H734a17.51,17.51,0,0,0,17.52-17.52V680.9A17.52,17.52,0,0,0,734,663.38Z"/><text class="cls-12" transform="translate(665.65 629.36)">IMP</text><text class="cls-12" transform="translate(687.58 541.95)">C</text><text class="cls-12" transform="translate(689.5 715.85)">S</text><line class="cls-10" x1="700" y1="835.92" x2="700" y2="909.25"/><path class="cls-1" d="M700,927.36c-3.16-8.52-8.55-19.09-14.27-25.65L700,906.88l14.26-5.17C708.55,908.27,703.16,918.84,700,927.36Z"/><line class="cls-10" x1="428.5" y1="837.16" x2="428.5" y2="910.49"/><path class="cls-1" d="M428.5,928.59c-3.16-8.52-8.55-19.09-14.27-25.64l14.27,5.16L442.76,903C437.05,909.5,431.66,920.07,428.5,928.59Z"/><line class="cls-10" x1="564.5" y1="837.16" x2="564.5" y2="910.49"/><path class="cls-1" d="M564.5,928.59c-3.16-8.52-8.55-19.09-14.27-25.64l14.27,5.16L578.76,903C573.05,909.5,567.66,920.07,564.5,928.59Z"/><line class="cls-10" x1="300.5" y1="263.56" x2="830.5" y2="263.56"/><line class="cls-10" x1="300.5" y1="321.56" x2="300.5" y2="263.56"/><line class="cls-10" x1="830.5" y1="263.56" x2="830.5" y2="663.56"/><line class="cls-10" x1="700.5" y1="263.56" x2="700.5" y2="321.56"/><path class="cls-1" d="M1022,323.18a15.53,15.53,0,0,1,15.52,15.52V380A15.53,15.53,0,0,1,1022,395.55H954.75A15.53,15.53,0,0,1,939.23,380V338.7a15.53,15.53,0,0,1,15.52-15.52H1022m0-2H954.75a17.52,17.52,0,0,0-17.52,17.52V380a17.51,17.51,0,0,0,17.52,17.52H1022A17.51,17.51,0,0,0,1039.51,380V338.7A17.52,17.52,0,0,0,1022,321.18Z"/><path class="cls-1" d="M1022,408.75a15.53,15.53,0,0,1,15.52,15.52V465.6A15.53,15.53,0,0,1,1022,481.12H954.75a15.53,15.53,0,0,1-15.52-15.52V424.27a15.53,15.53,0,0,1,15.52-15.52H1022m0-2H954.75a17.52,17.52,0,0,0-17.52,17.52V465.6a17.51,17.51,0,0,0,17.52,17.52H1022a17.51,17.51,0,0,0,17.52-17.52V424.27A17.52,17.52,0,0,0,1022,406.75Z"/><text class="cls-11" transform="translate(974.93 375.34)">P</text><text class="cls-12" transform="translate(946.75 458.3)">INST</text><path class="cls-1" d="M1022,754.71a15.54,15.54,0,0,1,15.52,15.52v41.33A15.53,15.53,0,0,1,1022,827.08H954.75a15.53,15.53,0,0,1-15.52-15.52V770.23a15.54,15.54,0,0,1,15.52-15.52H1022m0-2H954.75a17.52,17.52,0,0,0-17.52,17.52v41.33a17.51,17.51,0,0,0,17.52,17.52H1022a17.51,17.51,0,0,0,17.52-17.52V770.23A17.52,17.52,0,0,0,1022,752.71Z"/><text class="cls-12" transform="translate(976.51 805.18)">R</text><path class="cls-1" d="M1022,493.4a15.53,15.53,0,0,1,15.52,15.52v41.33A15.53,15.53,0,0,1,1022,565.77H954.75a15.53,15.53,0,0,1-15.52-15.52V508.92a15.53,15.53,0,0,1,15.52-15.52H1022m0-2H954.75a17.52,17.52,0,0,0-17.52,17.52v41.33a17.51,17.51,0,0,0,17.52,17.52H1022a17.51,17.51,0,0,0,17.52-17.52V508.92A17.52,17.52,0,0,0,1022,491.4Z"/><path class="cls-1" d="M1022,579a15.53,15.53,0,0,1,15.52,15.52v41.33A15.53,15.53,0,0,1,1022,651.34H954.75a15.53,15.53,0,0,1-15.52-15.52V594.49A15.53,15.53,0,0,1,954.75,579H1022m0-2H954.75a17.52,17.52,0,0,0-17.52,17.52v41.33a17.51,17.51,0,0,0,17.52,17.52H1022a17.51,17.51,0,0,0,17.52-17.52V594.49A17.52,17.52,0,0,0,1022,577Z"/><path class="cls-1" d="M1022,666.38a15.54,15.54,0,0,1,15.52,15.52v41.33A15.53,15.53,0,0,1,1022,738.75H954.75a15.53,15.53,0,0,1-15.52-15.52V681.9a15.54,15.54,0,0,1,15.52-15.52H1022m0-2H954.75a17.52,17.52,0,0,0-17.52,17.52v41.33a17.51,17.51,0,0,0,17.52,17.52H1022a17.51,17.51,0,0,0,17.52-17.52V681.9A17.52,17.52,0,0,0,1022,664.38Z"/><text class="cls-12" transform="translate(953.65 630.36)">IMP</text><text class="cls-12" transform="translate(975.58 542.95)">C</text><text class="cls-12" transform="translate(977.5 716.85)">S</text><line class="cls-10" x1="988" y1="837.16" x2="988" y2="910.49"/><path class="cls-1" d="M988,928.59c-3.16-8.52-8.55-19.09-14.27-25.64L988,908.11l14.26-5.16C996.55,909.5,991.16,920.07,988,928.59Z"/><path class="cls-1" d="M1142,756.71a15.54,15.54,0,0,1,15.52,15.52v41.33A15.53,15.53,0,0,1,1142,829.08h-67.24a15.53,15.53,0,0,1-15.52-15.52V772.23a15.54,15.54,0,0,1,15.52-15.52H1142m0-2h-67.24a17.52,17.52,0,0,0-17.52,17.52v41.33a17.51,17.51,0,0,0,17.52,17.52H1142a17.51,17.51,0,0,0,17.52-17.52V772.23A17.52,17.52,0,0,0,1142,754.71Z"/><text class="cls-12" transform="translate(1096.51 807.18)">R</text><path class="cls-1" d="M1142,495.4a15.53,15.53,0,0,1,15.52,15.52v41.33A15.53,15.53,0,0,1,1142,567.77h-67.24a15.53,15.53,0,0,1-15.52-15.52V510.92a15.53,15.53,0,0,1,15.52-15.52H1142m0-2h-67.24a17.52,17.52,0,0,0-17.52,17.52v41.33a17.51,17.51,0,0,0,17.52,17.52H1142a17.51,17.51,0,0,0,17.52-17.52V510.92A17.52,17.52,0,0,0,1142,493.4Z"/><path class="cls-1" d="M1142,581a15.53,15.53,0,0,1,15.52,15.52v41.33A15.53,15.53,0,0,1,1142,653.34h-67.24a15.53,15.53,0,0,1-15.52-15.52V596.49A15.53,15.53,0,0,1,1074.75,581H1142m0-2h-67.24a17.52,17.52,0,0,0-17.52,17.52v41.33a17.51,17.51,0,0,0,17.52,17.52H1142a17.51,17.51,0,0,0,17.52-17.52V596.49A17.52,17.52,0,0,0,1142,579Z"/><path class="cls-1" d="M1142,668.38a15.54,15.54,0,0,1,15.52,15.52v41.33A15.53,15.53,0,0,1,1142,740.75h-67.24a15.53,15.53,0,0,1-15.52-15.52V683.9a15.54,15.54,0,0,1,15.52-15.52H1142m0-2h-67.24a17.52,17.52,0,0,0-17.52,17.52v41.33a17.51,17.51,0,0,0,17.52,17.52H1142a17.51,17.51,0,0,0,17.52-17.52V683.9A17.52,17.52,0,0,0,1142,666.38Z"/><text class="cls-12" transform="translate(1073.65 632.36)">IMP</text><text class="cls-12" transform="translate(1095.58 544.95)">C</text><text class="cls-12" transform="translate(1097.5 718.85)">S</text><line class="cls-10" x1="1108" y1="839.63" x2="1108" y2="912.96"/><path class="cls-1" d="M1108,931.06c-3.16-8.52-8.55-19.09-14.27-25.64l14.27,5.16,14.26-5.16C1116.55,912,1111.16,922.54,1108,931.06Z"/><path class="cls-1" d="M1269,753.71a15.54,15.54,0,0,1,15.52,15.52v41.33A15.53,15.53,0,0,1,1269,826.08h-67.24a15.53,15.53,0,0,1-15.52-15.52V769.23a15.54,15.54,0,0,1,15.52-15.52H1269m0-2h-67.24a17.52,17.52,0,0,0-17.52,17.52v41.33a17.51,17.51,0,0,0,17.52,17.52H1269a17.51,17.51,0,0,0,17.52-17.52V769.23A17.52,17.52,0,0,0,1269,751.71Z"/><text class="cls-12" transform="translate(1223.51 804.18)">R</text><path class="cls-1" d="M1269,665.38a15.54,15.54,0,0,1,15.52,15.52v41.33A15.53,15.53,0,0,1,1269,737.75h-67.24a15.53,15.53,0,0,1-15.52-15.52V680.9a15.54,15.54,0,0,1,15.52-15.52H1269m0-2h-67.24a17.52,17.52,0,0,0-17.52,17.52v41.33a17.51,17.51,0,0,0,17.52,17.52H1269a17.51,17.51,0,0,0,17.52-17.52V680.9A17.52,17.52,0,0,0,1269,663.38Z"/><text class="cls-12" transform="translate(1224.5 715.85)">S</text><line class="cls-10" x1="1235" y1="835.92" x2="1235" y2="909.25"/><path class="cls-1" d="M1235,927.36c-3.16-8.52-8.55-19.09-14.27-25.65l14.27,5.17,14.26-5.17C1243.55,908.27,1238.16,918.84,1235,927.36Z"/><line class="cls-10" x1="564.5" y1="263.56" x2="564.5" y2="490.56"/><line class="cls-10" x1="428.5" y1="263.56" x2="428.5" y2="752.56"/><line class="cls-13" x1="678" y1="264.06" x2="678" y2="226.06"/><line class="cls-13" x1="647" y1="78.06" x2="647" y2="114.06"/><line class="cls-13" x1="762" y1="78.06" x2="762" y2="96.06"/><line class="cls-13" x1="647" y1="96.06" x2="982" y2="96.06"/><line class="cls-13" x1="872" y1="78.06" x2="872" y2="96.06"/><line class="cls-13" x1="982" y1="78.06" x2="982" y2="96.06"/><line class="cls-13" x1="804" y1="135.06" x2="1504" y2="135.06"/><line class="cls-10" x1="1107.5" y1="274.06" x2="1107.5" y2="256.06"/><text class="cls-14" transform="translate(1037.24 218.17)">GER <tspan class="cls-15" x="54.85" y="0">C</tspan><tspan x="71.82" y="0">ANAIS</tspan></text><line class="cls-10" x1="988.5" y1="321.56" x2="988.5" y2="273.56"/><line class="cls-10" x1="1108.5" y1="273.56" x2="987" y2="273.56"/><line class="cls-10" x1="1107.5" y1="274.06" x2="1108.5" y2="494.06"/><line class="cls-10" x1="1107.5" y1="274.56" x2="1234.5" y2="274.56"/><line class="cls-10" x1="1235.5" y1="664.56" x2="1234.5" y2="274.56"/><path class="cls-1" d="M1592.44,163.06A12.58,12.58,0,0,1,1605,175.62v65.15a12.57,12.57,0,0,1-12.56,12.56H1413.56A12.57,12.57,0,0,1,1401,240.77V175.62a12.58,12.58,0,0,1,12.56-12.56h178.88m0-2H1413.56A14.56,14.56,0,0,0,1399,175.62v65.15a14.56,14.56,0,0,0,14.56,14.56h178.88A14.56,14.56,0,0,0,1607,240.77V175.62a14.56,14.56,0,0,0-14.56-14.56Z"/><path class="cls-1" d="M1416,321.18a15.53,15.53,0,0,1,15.52,15.52V378A15.53,15.53,0,0,1,1416,393.55h-67.24A15.53,15.53,0,0,1,1333.23,378V336.7a15.53,15.53,0,0,1,15.52-15.52H1416m0-2h-67.24a17.52,17.52,0,0,0-17.52,17.52V378a17.51,17.51,0,0,0,17.52,17.52H1416A17.51,17.51,0,0,0,1433.51,378V336.7A17.52,17.52,0,0,0,1416,319.18Z"/><path class="cls-1" d="M1416,406.75a15.53,15.53,0,0,1,15.52,15.52V463.6A15.53,15.53,0,0,1,1416,479.12h-67.24a15.53,15.53,0,0,1-15.52-15.52V422.27a15.53,15.53,0,0,1,15.52-15.52H1416m0-2h-67.24a17.52,17.52,0,0,0-17.52,17.52V463.6a17.51,17.51,0,0,0,17.52,17.52H1416a17.51,17.51,0,0,0,17.52-17.52V422.27A17.52,17.52,0,0,0,1416,404.75Z"/><text class="cls-11" transform="translate(1368.93 373.34)">P</text><text class="cls-12" transform="translate(1340.75 456.3)">INST</text><path class="cls-1" d="M1416,752.71a15.54,15.54,0,0,1,15.52,15.52v41.33A15.53,15.53,0,0,1,1416,825.08h-67.24a15.53,15.53,0,0,1-15.52-15.52V768.23a15.54,15.54,0,0,1,15.52-15.52H1416m0-2h-67.24a17.52,17.52,0,0,0-17.52,17.52v41.33a17.51,17.51,0,0,0,17.52,17.52H1416a17.51,17.51,0,0,0,17.52-17.52V768.23A17.52,17.52,0,0,0,1416,750.71Z"/><text class="cls-12" transform="translate(1370.51 803.18)">R</text><path class="cls-1" d="M1416,491.4a15.53,15.53,0,0,1,15.52,15.52v41.33A15.53,15.53,0,0,1,1416,563.77h-67.24a15.53,15.53,0,0,1-15.52-15.52V506.92a15.53,15.53,0,0,1,15.52-15.52H1416m0-2h-67.24a17.52,17.52,0,0,0-17.52,17.52v41.33a17.51,17.51,0,0,0,17.52,17.52H1416a17.51,17.51,0,0,0,17.52-17.52V506.92A17.52,17.52,0,0,0,1416,489.4Z"/><path class="cls-1" d="M1416,577a15.53,15.53,0,0,1,15.52,15.52v41.33A15.53,15.53,0,0,1,1416,649.34h-67.24a15.53,15.53,0,0,1-15.52-15.52V592.49A15.53,15.53,0,0,1,1348.75,577H1416m0-2h-67.24a17.52,17.52,0,0,0-17.52,17.52v41.33a17.51,17.51,0,0,0,17.52,17.52H1416a17.51,17.51,0,0,0,17.52-17.52V592.49A17.52,17.52,0,0,0,1416,575Z"/><path class="cls-1" d="M1416,664.38a15.54,15.54,0,0,1,15.52,15.52v41.33A15.53,15.53,0,0,1,1416,736.75h-67.24a15.53,15.53,0,0,1-15.52-15.52V679.9a15.54,15.54,0,0,1,15.52-15.52H1416m0-2h-67.24a17.52,17.52,0,0,0-17.52,17.52v41.33a17.51,17.51,0,0,0,17.52,17.52H1416a17.51,17.51,0,0,0,17.52-17.52V679.9A17.52,17.52,0,0,0,1416,662.38Z"/><text class="cls-12" transform="translate(1347.65 628.36)">IMP</text><text class="cls-12" transform="translate(1369.58 540.95)">C</text><text class="cls-12" transform="translate(1371.5 714.85)">S</text><path class="cls-1" d="M1820.15,119.18a15.53,15.53,0,0,1,15.52,15.52V176a15.53,15.53,0,0,1-15.52,15.52h-67.24A15.53,15.53,0,0,1,1737.39,176V134.7a15.53,15.53,0,0,1,15.52-15.52h67.24m0-2h-67.24a17.52,17.52,0,0,0-17.52,17.52V176a17.51,17.51,0,0,0,17.52,17.52h67.24A17.51,17.51,0,0,0,1837.67,176V134.7a17.52,17.52,0,0,0-17.52-17.52Z"/><path class="cls-1" d="M1820.15,258.75a15.53,15.53,0,0,1,15.52,15.52V315.6a15.53,15.53,0,0,1-15.52,15.52h-67.24a15.53,15.53,0,0,1-15.52-15.52V274.27a15.53,15.53,0,0,1,15.52-15.52h67.24m0-2h-67.24a17.52,17.52,0,0,0-17.52,17.52V315.6a17.51,17.51,0,0,0,17.52,17.52h67.24a17.51,17.51,0,0,0,17.52-17.52V274.27a17.52,17.52,0,0,0-17.52-17.52Z"/><text class="cls-11" transform="translate(1773.1 171.34)">P</text><text class="cls-12" transform="translate(1744.91 308.3)">INST</text><path class="cls-1" d="M1820.15,912.71a15.54,15.54,0,0,1,15.52,15.52v41.33a15.53,15.53,0,0,1-15.52,15.52h-67.24a15.53,15.53,0,0,1-15.52-15.52V928.23a15.54,15.54,0,0,1,15.52-15.52h67.24m0-2h-67.24a17.52,17.52,0,0,0-17.52,17.52v41.33a17.51,17.51,0,0,0,17.52,17.52h67.24a17.51,17.51,0,0,0,17.52-17.52V928.23a17.52,17.52,0,0,0-17.52-17.52Z"/><text class="cls-12" transform="translate(1774.67 963.18)">R</text><path class="cls-1" d="M1820.15,422.4a15.53,15.53,0,0,1,15.52,15.52v41.33a15.53,15.53,0,0,1-15.52,15.52h-67.24a15.53,15.53,0,0,1-15.52-15.52V437.92a15.53,15.53,0,0,1,15.52-15.52h67.24m0-2h-67.24a17.52,17.52,0,0,0-17.52,17.52v41.33a17.51,17.51,0,0,0,17.52,17.52h67.24a17.51,17.51,0,0,0,17.52-17.52V437.92a17.52,17.52,0,0,0-17.52-17.52Z"/><path class="cls-1" d="M1820.15,747.38a15.54,15.54,0,0,1,15.52,15.52v41.33a15.53,15.53,0,0,1-15.52,15.52h-67.24a15.53,15.53,0,0,1-15.52-15.52V762.9a15.54,15.54,0,0,1,15.52-15.52h67.24m0-2h-67.24a17.52,17.52,0,0,0-17.52,17.52v41.33a17.51,17.51,0,0,0,17.52,17.52h67.24a17.51,17.51,0,0,0,17.52-17.52V762.9a17.52,17.52,0,0,0-17.52-17.52Z"/><path class="cls-1" d="M1820.15,586a15.53,15.53,0,0,1,15.52,15.52v41.33a15.53,15.53,0,0,1-15.52,15.52h-67.24a15.53,15.53,0,0,1-15.52-15.52V601.49A15.53,15.53,0,0,1,1752.91,586h67.24m0-2h-67.24a17.52,17.52,0,0,0-17.52,17.52v41.33a17.51,17.51,0,0,0,17.52,17.52h67.24a17.51,17.51,0,0,0,17.52-17.52V601.49A17.52,17.52,0,0,0,1820.15,584Z"/><text class="cls-12" transform="translate(1751.81 637.36)">IMP</text><text class="cls-12" transform="translate(1773.74 471.95)">C</text><text class="cls-12" transform="translate(1775.66 797.85)">S</text><line class="cls-10" x1="1382" y1="834.69" x2="1382" y2="908.02"/><path class="cls-1" d="M1382,926.12c-3.16-8.52-8.55-19.09-14.27-25.64l14.27,5.16,14.26-5.16C1390.55,907,1385.16,917.6,1382,926.12Z"/><path class="cls-1" d="M1536,754.71a15.54,15.54,0,0,1,15.52,15.52v41.33A15.53,15.53,0,0,1,1536,827.08h-67.24a15.53,15.53,0,0,1-15.52-15.52V770.23a15.54,15.54,0,0,1,15.52-15.52H1536m0-2h-67.24a17.52,17.52,0,0,0-17.52,17.52v41.33a17.51,17.51,0,0,0,17.52,17.52H1536a17.51,17.51,0,0,0,17.52-17.52V770.23A17.52,17.52,0,0,0,1536,752.71Z"/><text class="cls-12" transform="translate(1490.51 805.18)">R</text><line class="cls-10" x1="1502" y1="837.16" x2="1502" y2="910.49"/><path class="cls-1" d="M1502,928.59c-3.16-8.52-8.55-19.09-14.27-25.64l14.27,5.16,14.26-5.16C1510.55,909.5,1505.16,920.07,1502,928.59Z"/><line class="cls-10" x1="1501.5" y1="272.06" x2="1501.5" y2="254.06"/><text class="cls-14" transform="translate(1431.24 216.17)">GER <tspan class="cls-15" x="54.85" y="0">C</tspan><tspan x="71.82" y="0">ANAIS</tspan></text><text class="cls-14" transform="translate(1728.08 53.17)">LEGEN<tspan class="cls-16" x="80.18" y="0">D</tspan><tspan x="99.13" y="0">A</tspan></text><line class="cls-10" x1="1382.5" y1="319.56" x2="1382.5" y2="271.56"/><line class="cls-10" x1="1502.5" y1="271.56" x2="1381" y2="271.56"/><line class="cls-10" x1="1501.5" y1="272.06" x2="1503.5" y2="751.56"/><line class="cls-13" x1="1503" y1="163.06" x2="1503" y2="135.06"/><line class="cls-13" x1="1107" y1="163.06" x2="1107" y2="135.06"/><text class="cls-17" transform="translate(1723.01 228.82)"><tspan class="cls-18">P</tspan><tspan x="15.01" y="0">A</tspan><tspan class="cls-19" x="35.51" y="0">R</tspan><tspan x="53.84" y="0">TNER</tspan></text><text class="cls-20" transform="translate(1683.9 357.82)">TÉCNI<tspan class="cls-21" x="59.18" y="0">C</tspan><tspan x="72.6" y="0">O - SUPO</tspan><tspan class="cls-22" x="163.34" y="0">R</tspan><tspan x="176.47" y="0">TE </tspan><tspan x="29.84" y="28.8">E INS</tspan><tspan class="cls-23" x="80.1" y="28.8">T</tspan><tspan x="90.23" y="28.8">AL</tspan><tspan class="cls-24" x="116.24" y="28.8">A</tspan><tspan class="cls-25" x="130.57" y="28.8">Ç</tspan><tspan class="cls-24" x="144.59" y="28.8">Ã</tspan><tspan x="158.91" y="28.8">O</tspan></text><text class="cls-20" transform="translate(1667.76 527.82)"><tspan class="cls-21">C</tspan><tspan class="cls-26" x="13.42" y="0">O</tspan><tspan class="cls-27" x="29.62" y="0">A</tspan><tspan x="43.94" y="0">CH -</tspan><tspan class="cls-28" x="85.97" y="0"> </tspan><tspan x="90.07" y="0">TREIN</tspan><tspan class="cls-29" x="148.25" y="0">A</tspan><tspan x="162.84" y="0">MEN</tspan><tspan class="cls-30" x="209.73" y="0">T</tspan><tspan class="cls-31" x="221.01" y="0">O</tspan><tspan x="58.9" y="28.8">DE SISTE</tspan><tspan class="cls-32" x="144.91" y="28.8">M</tspan><tspan x="163.97" y="28.8">A</tspan></text><text class="cls-20" transform="translate(1704.36 694.82)">TREIN<tspan class="cls-33" x="58.17" y="0">A</tspan><tspan class="cls-31" x="72.77" y="0">MEN</tspan><tspan class="cls-30" x="119.66" y="0">T</tspan><tspan x="130.94" y="0">O E</tspan><tspan x="7.71" y="28.8">IMPLAN</tspan><tspan class="cls-34" x="87.32" y="28.8">T</tspan><tspan class="cls-35" x="97.45" y="28.8">A</tspan><tspan class="cls-25" x="111.78" y="28.8">Ç</tspan><tspan class="cls-24" x="125.79" y="28.8">Ã</tspan><tspan x="140.12" y="28.8">O</tspan></text><text class="cls-20" transform="translate(1685.58 854.82)">SELLER -<tspan class="cls-36" x="83.47" y="0"> </tspan><tspan x="87.69" y="0">VENDEDOR</tspan><tspan x="32.82" y="28.8">ESPECIALIS</tspan><tspan class="cls-23" x="144.27" y="28.8">T</tspan><tspan class="cls-37" x="154.4" y="28.8">A</tspan></text><text class="cls-20" transform="translate(1663.86 1025.82)">REFERENCE -<tspan class="cls-36" x="126.91" y="0"> </tspan><tspan x="131.13" y="0">VENDEDOR</tspan><tspan x="69.56" y="28.8" xml:space="preserve"> INICIANTE</tspan></text></g></g></svg>